<?xml version="1.0" encoding="utf-8"?>
<!-- Svg Vector Icons : http://www.onlinewebfonts.com/icon -->
<!DOCTYPE svg PUBLIC "-//W3C//DTD SVG 1.1//EN" "http://www.w3.org/Graphics/SVG/1.1/DTD/svg11.dtd">
<svg version="1.1" xmlns="http://www.w3.org/2000/svg" xmlns:xlink="http://www.w3.org/1999/xlink" x="0px" y="0px" viewBox="0 0 1000 1000" enable-background="new 0 0 1000 1000" xml:space="preserve">
<metadata> Svg Vector Icons : http://www.onlinewebfonts.com/icon </metadata>
<g><path d="M500,990c270.2,0,490-219.8,490-490c0-270.2-219.8-490-490-490C229.8,10,10,229.8,10,500C10,770.2,229.8,990,500,990z M500,955c-119.2,0-234.1-60.9-323.6-139.8L164,804.4l10.6-12.5c31.4-37.3,87-68.4,156.5-87.5c24.8-9.9,36.9-16.5,45.9-25.4c9.6-9.6,14.8-18.5,16.7-28.5c1.2-6.8,0.9-42.6-0.1-74.3c-17.2-19.5-32.2-48.5-46.5-90.5c-14.8-7.7-28-26.7-32-47.6c-4.2-22.4-1.9-41.2,6.1-52.4C302.7,278,314.5,198.1,356.3,148c32.7-39.2,82.5-58.9,148.3-58.9l6-0.1c54.7,0,67.3,11.4,79.1,27.6c2.3,3.1,4.2,5.6,7,7.9c30.3,0,55.4,12.1,72.7,35.1c32.9,43.5,36.9,126.8,11.1,224.4c9.1,11.1,11.7,31.3,6.3,55.2c-5,22.3-20.6,42.2-36.5,48.3c-11.7,38.4-23.6,67.5-42.3,89.4V647c2,15.5,7.9,21.2,18.7,31.6l7.1,7.1c6.6,5.4,12.6,8.2,39.1,19.8c66.5,18.4,121.6,49.3,152.7,86.3l10.5,12.5l-12.3,10.9C734,894.1,619.1,955,500,955z"/></g>
</svg>